<?xml version="1.0" encoding="UTF-8"?>
<svg id="Livello_1" xmlns="http://www.w3.org/2000/svg" xmlns:xlink="http://www.w3.org/1999/xlink" version="1.1" viewBox="0 0 257.69 83.38">
  <!-- Generator: Adobe Illustrator 30.6.0, SVG Export Plug-In . SVG Version: 2.1.4 Build 109)  -->
  <defs>
    <style>
      .st0 {
        fill: none;
      }

      .st1 {
        fill: #1d1e1b;
      }

      .st2 {
        fill: #ffd000;
      }

      .st3 {
        fill: url(#Sfumatura_senza_nome_4);
      }

      .st4 {
        clip-path: url(#clippath);
      }
    </style>
    <clipPath id="clippath">
      <polygon class="st0" points="128.26 0 97.23 31.04 128.26 62.09 159.3 31.04 128.26 0 128.26 0"/>
    </clipPath>
    <radialGradient id="Sfumatura_senza_nome_4" data-name="Sfumatura senza nome 4" cx="-13.82" cy="-89.31" fx="-13.82" fy="-89.31" r=".57" gradientTransform="translate(881.0172 4895.4037) scale(54.464)" gradientUnits="userSpaceOnUse">
      <stop offset="0" stop-color="#fff"/>
      <stop offset="1" stop-color="#1d1e1c"/>
    </radialGradient>
  </defs>
  <polygon class="st1" points="133.12 61.1 133.12 83.09 145.37 83.09 145.37 81.67 134.82 81.67 134.82 72.74 144.85 72.74 144.85 71.32 134.82 71.32 134.82 62.52 145.11 62.52 145.11 61.1 133.12 61.1"/>
  <polygon class="st1" points="148.68 61.1 148.68 83.09 161.25 83.09 161.25 81.67 150.39 81.67 150.39 61.1 148.68 61.1"/>
  <polygon class="st1" points="163.83 61.1 163.83 83.09 176.08 83.09 176.08 81.67 165.54 81.67 165.54 72.74 175.57 72.74 175.57 71.32 165.54 71.32 165.54 62.52 175.82 62.52 175.82 61.1 163.83 61.1"/>
  <polygon class="st1" points="177.77 61.1 177.77 62.52 186.02 62.52 186.02 83.09 187.73 83.09 187.73 62.52 195.98 62.52 195.98 61.1 177.77 61.1"/>
  <polygon class="st1" points="197.62 61.1 197.62 62.52 205.87 62.52 205.87 83.09 207.58 83.09 207.58 62.52 215.84 62.52 215.84 61.1 197.62 61.1"/>
  <path class="st1" d="M226.66,72.13c2.8-1.03,4.19-2.8,4.19-5.35,0-2.93-1.9-5.67-7.29-5.67h-5.64v21.99h1.71v-10.54h2.97c2.64,0,3.48.36,6.12,4.51l3.84,6.03h2l-4.97-7.61c-1.03-1.55-1.9-2.81-2.93-3.35M223.27,71.13h-3.64v-8.61h3.58c4.03,0,5.8,1.81,5.8,4.29,0,2.64-1.87,4.32-5.74,4.32"/>
  <path class="st1" d="M246.02,60.81c-6.51,0-11.61,4.96-11.61,11.28s5.09,11.28,11.61,11.28,11.67-4.96,11.67-11.28-5.13-11.28-11.67-11.28M246.09,81.8c-5.51,0-9.83-4.22-9.83-9.7s4.32-9.7,9.83-9.7,9.77,4.22,9.77,9.7-4.26,9.7-9.77,9.7"/>
  <polygon class="st1" points="7.19 82.88 15.26 82.88 15.26 65.62 22.46 65.62 22.46 59.85 0 59.85 0 65.62 7.19 65.62 7.19 82.88"/>
  <path class="st1" d="M44.14,71.77c2.47-1.08,3.72-2.9,3.72-5.34,0-3.61-2.67-6.59-8.88-6.59h-13.14v23.03h8.07v-9.62h2.19c2.2,0,3.48,2.26,5.17,6.21l1.45,3.41h7.94l-2.74-6.08c-1.25-2.73-2.13-4.32-3.78-5.03M36.1,69.71h-2.19v-6.15h2.36c2.53,0,3.95,1.01,3.95,3.04s-1.52,3.11-4.12,3.11"/>
  <path class="st1" d="M61.73,59.85l-10.5,23.03h8.01l1.52-3.75h10.4l1.52,3.75h8l-10.5-23.03h-8.44ZM62.41,74.98l3.55-9.12,3.51,9.12h-7.06Z"/>
  <polygon class="st1" points="81.79 82.88 89.87 82.88 89.87 73.76 98.07 73.76 98.07 68.9 89.87 68.9 89.87 64.71 98.61 64.71 98.61 59.85 81.79 59.85 81.79 82.88"/>
  <path class="st1" d="M113.84,59.54c-8.58,0-12.53,5.71-12.53,11.82s4.22,11.82,12.53,11.82c8.78,0,12.53-5.94,12.53-11.82s-3.85-11.82-12.53-11.82M113.84,76.43c-2.77,0-4.46-1.96-4.46-5.06s1.69-5.07,4.46-5.07,4.46,1.96,4.46,5.07-1.72,5.06-4.46,5.06"/>
  <g class="st4">
    <rect class="st3" x="97.23" width="62.07" height="62.09"/>
  </g>
  <polygon class="st1" points="87.48 51.57 93.51 57.6 112.65 38.72 112.74 46.51 119.95 49.91 142.8 30.47 142.67 33.35 149.09 37.15 185.03 8.31 151.85 25.88 152.11 20.63 145.32 16.67 121.7 36.76 121.7 28.24 114.23 25.09 87.48 51.57"/>
  <polygon class="st2" points="150.31 19.23 143.52 15.26 119.9 35.35 119.9 26.83 112.42 23.68 85.68 50.16 91.71 56.19 110.85 37.32 111.1 44.93 118.32 48.33 141 29.06 141.13 31.68 147.56 35.48 183.23 6.9 150.05 24.47 150.31 19.23"/>
</svg>